<svg width="46" height="64" viewBox="0 0 46 64" fill="none" xmlns="http://www.w3.org/2000/svg">
<path d="M10.7925 60.6656C10.7934 61.5492 11.1447 62.3965 11.7693 63.0216C12.394 63.6467 13.241 63.9985 14.1247 64H31.8776C32.7611 63.9982 33.6078 63.6462 34.2323 63.0212C34.8567 62.3962 35.2078 61.5491 35.2087 60.6656V49.7959H10.7925V60.6656ZM13.6621 52.6644H32.3401V55.3807H13.6621V52.6644ZM13.6621 58.2505H32.3401V60.6656C32.337 60.7872 32.2873 60.9031 32.2012 60.9891C32.1151 61.0752 31.9993 61.1249 31.8776 61.1281H14.1201C13.9985 61.1249 13.8827 61.0752 13.7966 60.9891C13.7105 60.9031 13.6608 60.7872 13.6577 60.6656L13.6621 58.2505ZM23.0012 2.35529e-05C18.914 -0.00391647 14.9055 1.12282 11.4189 3.25559C7.93242 5.38836 5.10383 8.44404 3.24609 12.0846C1.38835 15.7251 0.573907 19.8085 0.892809 23.8832C1.21171 27.9578 2.65155 31.8649 5.05305 35.1721L6.26342 36.7581C6.26342 36.7581 7.39147 37.9391 8.51274 39.3695C9.4239 40.3759 10.1177 41.5594 10.551 42.846V47.7733H35.4264V42.846C35.8621 41.5608 36.5554 40.3778 37.4636 39.3695C38.5838 37.9391 39.7197 36.7626 39.7197 36.7581L40.9109 35.2251C43.3251 31.9202 44.7769 28.0112 45.1051 23.9316C45.4334 19.852 44.6253 15.7612 42.7705 12.1129C40.9157 8.46452 38.0867 5.40117 34.5972 3.2625C31.1076 1.12383 27.0939 -0.0065694 23.0012 -0.00335008V2.35529e-05ZM37.5753 34.8133L37.0666 35.3965C36.603 35.912 35.9092 36.7039 35.2087 37.6007C34.0051 39.2352 32.6706 40.8539 32.5578 42.846C32.5578 43.6627 32.5578 44.3565 32.5578 44.9047H24.436V30.9273C25.8987 30.5761 27.1816 29.7004 28.0417 28.4663C28.9018 27.2322 29.2792 25.7254 29.1023 24.2316C28.9255 22.7378 28.2068 21.3608 27.0824 20.3616C25.9579 19.3624 24.506 18.8105 23.0017 18.8105C21.4975 18.8105 20.0455 19.3624 18.9211 20.3616C17.7966 21.3608 17.0779 22.7378 16.901 24.2316C16.7242 25.7254 17.1016 27.2322 17.9617 28.4663C18.8218 29.7004 20.1048 30.5761 21.5674 30.9273V44.9047H13.4207V42.846C13.3079 40.8539 11.9724 39.2364 10.771 37.6007C10.3999 37.1269 10.0311 36.6825 9.69716 36.2888H9.70501L8.42358 34.8111C5.99533 32.0154 4.42232 28.5803 3.8921 24.9154C3.36189 21.2506 3.89685 17.5105 5.43316 14.1413C6.96948 10.772 9.44237 7.91559 12.557 5.91267C15.6716 3.90975 19.2964 2.8448 22.9994 2.8448C26.7025 2.8448 30.3273 3.90975 33.4419 5.91267C36.5565 7.91559 39.0294 10.772 40.5657 14.1413C42.102 17.5105 42.637 21.2506 42.1068 24.9154C41.5766 28.5803 40.0036 32.0154 37.5753 34.8111V34.8133ZM23.0023 28.2437C22.3553 28.2437 21.7228 28.0518 21.1848 27.6924C20.6469 27.3329 20.2276 26.822 19.98 26.2243C19.7324 25.6265 19.6676 24.9688 19.7938 24.3342C19.92 23.6996 20.2316 23.1167 20.6891 22.6592C21.1466 22.2017 21.7295 21.8902 22.3641 21.764C22.9987 21.6377 23.6564 21.7025 24.2542 21.9501C24.8519 22.1977 25.3628 22.617 25.7222 23.155C26.0817 23.6929 26.2736 24.3254 26.2736 24.9724C26.2736 25.402 26.189 25.8274 26.0246 26.2243C25.8602 26.6212 25.6192 26.9818 25.3154 27.2855C25.0116 27.5893 24.6511 27.8303 24.2542 27.9947C23.8573 28.1591 23.4319 28.2437 23.0023 28.2437Z" fill="#3182CE"/>
</svg>
