<svg width="1742" height="608" viewBox="0 0 1742 608" fill="none" xmlns="http://www.w3.org/2000/svg">
<path d="M1742 0L467.572 541.056C361.89 585.637 273.12 608 201.334 608C120.04 608 61.0295 579.63 24.4473 522.818C1.43817 486.342 -5.31214 440.096 4.12377 384.008C13.5597 327.919 38.6737 268.212 79.3207 204.669C113.217 153.285 168.744 85.7612 246.046 2.02642C219.826 43.1821 200.599 88.3708 189.14 135.77C168.817 222.255 187.108 285.726 244.014 326.254C271.087 345.144 308.323 354.624 355.793 354.624C393.682 354.624 436.361 348.545 483.831 336.387L1742 0Z" fill="white" fill-opacity="0.2"/>
</svg>
