<svg width="30" height="24" viewBox="0 0 30 24" fill="none" xmlns="http://www.w3.org/2000/svg">
<path d="M2.25 24C1.65 24 1.125 23.775 0.675 23.325C0.225 22.875 0 22.35 0 21.75V2.25C0 1.65 0.225 1.125 0.675 0.675C1.125 0.225 1.65 0 2.25 0H27.75C28.35 0 28.875 0.225 29.325 0.675C29.775 1.125 30 1.65 30 2.25V21.75C30 22.35 29.775 22.875 29.325 23.325C28.875 23.775 28.35 24 27.75 24H2.25ZM27.75 4.3125L15.6 12.2625C15.5 12.3125 15.4062 12.3562 15.3187 12.3937C15.2312 12.4312 15.125 12.45 15 12.45C14.875 12.45 14.7688 12.4312 14.6813 12.3937C14.5938 12.3562 14.5 12.3125 14.4 12.2625L2.25 4.3125V21.75H27.75V4.3125ZM15 10.425L27.6 2.25H2.4375L15 10.425ZM2.25 4.3125V4.575V3.09375V3.1125V2.25V3.1125V3.075V4.575V4.3125V21.75V4.3125Z" fill="#3182CE"/>
</svg>
